<svg width="404" height="329" viewBox="0 0 404 329" fill="none" xmlns="http://www.w3.org/2000/svg">
  <path
    d="M72.9659 159.559C72.9498 169.318 72.9331 179.078 72.9165 188.837C75.6629 189.389 78.4118 189.923 81.1638 190.441C86.0134 191.357 88.6477 189.427 88.6686 182.133C88.6769 179.283 88.6847 176.434 88.693 173.585C88.7206 164.458 85.9638 161.33 79.3967 160.454C77.2519 160.163 75.1082 159.865 72.9659 159.559V159.559ZM73.0326 120.747C73.0181 129.146 73.0039 137.543 72.9894 145.941C74.8722 146.159 76.7555 146.373 78.6394 146.582C84.0285 147.186 87.3269 145.005 87.3487 137.165C87.3539 135.347 87.3591 133.53 87.3638 131.711C87.3842 124.713 85.1509 121.51 80.0123 121.198C77.6853 121.053 75.3586 120.902 73.0326 120.747V120.747ZM101.869 131.174C101.865 132.366 101.861 133.558 101.857 134.75C101.823 145.053 98.8971 151.265 92.4362 153.807C92.4358 153.902 92.4358 153.995 92.4353 154.09C100.194 158.157 103.202 165.939 103.164 176.561C103.156 179.283 103.146 182.007 103.137 184.73C103.087 200.238 95.5347 207.381 81.1305 204.274C73.5815 202.663 66.0561 200.905 58.5586 198.998C58.5586 168.174 58.5586 137.35 58.5586 106.527C65.8482 106.846 73.1419 107.142 80.4399 107.414C95.4779 107.91 101.924 115.671 101.869 131.174Z"
    fill="#fff" />
  <path
    d="M116.738 108.569C121.581 108.697 126.425 108.814 131.271 108.921C131.15 143.517 131.03 178.114 130.909 212.71C126.057 212.098 121.21 211.425 116.37 210.693C116.493 176.651 116.615 142.61 116.738 108.569"
    fill="#fff" />
  <path
    d="M166.041 108.29C180.188 108.427 187.452 118.273 187.436 135.478C187.434 136.603 187.433 137.729 187.433 138.854C182.84 138.798 178.246 138.719 173.654 138.621C173.657 137.143 173.66 135.667 173.662 134.19C173.677 126.546 171.036 123.607 166.404 123.522C161.772 123.437 159.118 126.257 159.098 133.837C159.08 141.567 161.973 147.426 171.498 157.35C183.673 170.095 187.522 179.065 187.508 191.35C187.494 208.522 180.022 218.25 165.662 217.287C151.306 216.253 143.918 205.737 143.97 188.999C143.977 186.85 143.985 184.699 143.992 182.549C148.584 182.907 153.18 183.227 157.777 183.506C157.77 186.031 157.764 188.557 157.757 191.083C157.737 198.653 160.65 201.603 165.298 201.889C169.948 202.17 172.877 199.554 172.892 191.917C172.906 184.123 169.992 178.202 160.469 168.181C148.306 155.285 144.504 146.401 144.54 134.402C144.594 117.625 151.893 108.162 166.041 108.29"
    fill="#fff" />
  <path
    d="M196.328 109.729C211.32 109.77 226.312 109.713 241.302 109.554C241.312 114.64 241.322 119.725 241.332 124.809C236.259 124.898 231.184 124.969 226.11 125.02C226.147 155.701 226.184 186.382 226.222 217.062C221.342 217.23 216.46 217.338 211.579 217.386C211.567 186.629 211.556 155.872 211.546 125.114C206.471 125.129 201.395 125.125 196.319 125.101C196.323 119.977 196.326 114.853 196.328 109.729Z"
    fill="#fff" />
  <path
    d="M266.868 124.197C266.901 134.953 266.936 145.709 266.969 156.465C268.867 156.358 270.764 156.245 272.66 156.128C278.085 155.786 281.381 152.877 281.352 144.593C281.34 141.186 281.328 137.78 281.316 134.372C281.289 126.972 279.032 123.802 273.876 123.972C271.54 124.052 269.204 124.126 266.868 124.197V124.197ZM283.045 212.388C282.241 209.83 281.707 208.265 281.677 199.824C281.659 194.393 281.64 188.962 281.62 183.533C281.587 173.91 278.665 170.624 272.047 171.113C270.371 171.238 268.693 171.358 267.016 171.474C267.061 185.732 267.105 199.989 267.151 214.248C262.288 214.75 257.421 215.193 252.551 215.576C252.46 180.192 252.368 144.806 252.277 109.421C259.595 109.32 266.909 109.196 274.223 109.046C289.288 108.777 295.787 116.301 295.843 132C295.852 134.67 295.863 137.341 295.872 140.012C295.909 150.49 292.899 157.448 286.435 161.377C286.436 161.476 286.436 161.574 286.436 161.672C293.717 164.469 296.119 171.762 296.157 182.396C296.176 187.641 296.195 192.885 296.213 198.129C296.232 203.081 296.376 206.712 297.841 210.268C292.916 211.036 287.984 211.744 283.045 212.388Z"
    fill="#fff" />
  <path
    d="M323.564 183.126C323.584 190.133 326.48 192.282 331.066 191.398C335.651 190.511 338.522 187.325 338.511 180.53C338.482 163.371 338.452 146.214 338.423 129.055C338.412 122.257 335.511 119.855 330.899 120.126C326.287 120.395 323.394 123.214 323.414 130.223C323.464 147.858 323.514 165.491 323.564 183.126V183.126ZM346.408 86.9755C341.922 91.9328 337.443 97.0301 332.968 102.249C329.714 102.341 326.459 102.43 323.203 102.514C326.18 97.2568 329.159 92.0741 332.142 86.9755C336.898 86.9755 341.654 86.9755 346.408 86.9755ZM308.915 132.218C308.858 116.114 316.619 106.739 330.866 106.313C345.116 105.898 352.887 114.013 352.882 128.719C352.882 144.749 352.882 160.777 352.882 176.805C352.872 191.479 345.223 202.031 331.098 205.21C316.962 208.321 309.144 200.403 309.094 184.333C309.034 166.962 308.975 149.59 308.915 132.218"
    fill="#fff" />
  <path
    d="M144.719 80.6289L141.905 74.9289L135.615 74.0143L140.167 69.5783L139.092 63.3129L144.719 66.2702L150.345 63.3129L149.271 69.5783L153.823 74.0143L147.532 74.9289L144.719 80.6289"
    fill="#fff" />
  <path
    d="M201.387 80.6289L198.573 74.9289L192.283 74.0143L196.835 69.5783L195.76 63.3129L201.387 66.2702L207.015 63.3129L205.94 69.5783L210.492 74.0143L204.201 74.9289L201.387 80.6289"
    fill="#fff" />
  <path
    d="M258.056 80.6289L255.243 74.9289L248.952 74.0143L253.504 69.5783L252.429 63.3129L258.056 66.2702L263.683 63.3129L262.608 69.5783L267.16 74.0143L260.869 74.9289L258.056 80.6289"
    fill="#fff" />
  <path
    d="M141.748 228.317L141.814 228.329C142.008 228.388 142.145 228.504 142.227 228.679C142.308 228.853 142.333 229.028 142.3 229.204C142.271 229.358 142.054 229.67 141.648 230.141C141.265 230.616 141.042 231.018 140.981 231.348C140.924 231.656 140.913 231.961 140.948 232.263C140.987 232.543 141.139 233.254 141.405 234.395C141.989 236.892 142.111 239.053 141.772 240.878C141.438 242.682 140.666 244.085 139.456 245.089C138.268 246.097 136.992 246.475 135.629 246.222C134.287 245.973 133.767 245.035 134.069 243.408C134.375 241.758 135.284 240.107 136.797 238.454C137.678 237.503 138.566 236.826 139.46 236.423C139.708 236.31 139.845 236.369 139.87 236.601C139.917 236.838 139.841 237.005 139.64 237.105C138.193 237.792 136.932 239.071 135.857 240.941C134.885 242.626 134.587 243.868 134.962 244.665C135.089 244.962 135.317 245.14 135.647 245.202C136.615 245.381 137.494 244.873 138.284 243.678C139.075 242.482 139.65 240.917 140.009 238.982C140.319 237.31 140.408 235.723 140.278 234.22C140.147 232.717 140.08 231.852 140.077 231.624C139.185 232.755 138.209 234.03 137.149 235.448L136.259 235.283C137.973 233.031 139.288 231.341 140.202 230.214C140.551 228.823 141.066 228.191 141.748 228.317Z"
    fill="#131112" />
  <path
    d="M153.366 228.11C153.875 228.187 154.077 228.569 153.974 229.254C153.87 229.94 153.454 230.442 152.727 230.762C152.362 230.933 152.058 231 151.815 230.963C151.461 230.909 151.267 230.767 151.234 230.536L151.216 230.431C151.415 230.462 151.591 230.273 151.743 229.866C151.898 229.438 152.096 229.026 152.337 228.633C152.603 228.221 152.946 228.047 153.366 228.11ZM148.355 246.862C148.93 246.949 149.853 246.309 151.123 244.94C152.393 243.572 153.52 242.181 154.503 240.769L155.978 238.651L156.873 238.787C156.7 239.032 156.468 239.37 156.177 239.801C155.911 240.213 155.379 240.959 154.583 242.037C153.789 243.093 153.038 244.02 152.329 244.817C151.642 245.618 150.89 246.33 150.072 246.953C149.279 247.556 148.628 247.82 148.12 247.743C146.483 247.495 145.826 246.31 146.147 244.187C146.388 242.594 147.234 240.076 148.683 236.63C148.828 236.268 148.938 235.991 149.012 235.798C149.109 235.609 149.214 235.365 149.327 235.065C149.444 234.744 149.555 234.455 149.662 234.2C149.843 233.752 150.077 233.55 150.364 233.594C150.762 233.654 151.006 233.985 151.096 234.587C151.144 234.866 151.14 235.193 151.083 235.569C151.026 235.945 150.922 236.336 150.77 236.743C150.621 237.128 150.387 237.703 150.067 238.469C149.747 239.235 149.494 239.864 149.306 240.356C149.119 240.848 148.903 241.448 148.66 242.158C148.233 243.337 147.947 244.403 147.803 245.353C147.662 246.282 147.846 246.785 148.355 246.862Z"
    fill="#131112" />
  <path
    d="M155.521 248.836C154.898 248.766 154.641 248.253 154.749 247.297C154.807 246.786 155.85 243.134 157.879 236.34C157.998 235.881 158.224 235.67 158.558 235.708C158.958 235.753 159.225 236.076 159.36 236.677C159.436 237 159.453 237.351 159.41 237.729C159.37 238.084 159.281 238.468 159.145 238.881L158.31 241.487L158.51 241.51C161.017 237.247 163.183 235.218 165.005 235.424C165.716 235.504 166.236 235.788 166.563 236.275C166.893 236.74 167.016 237.351 166.93 238.106C166.845 238.862 166.36 240.462 165.476 242.905C164.592 245.349 164.095 247.059 163.984 248.037C163.821 249.482 164.006 250.234 164.539 250.295C164.522 250.45 164.404 250.595 164.186 250.727C163.969 250.86 163.727 250.912 163.46 250.882C162.171 250.736 161.641 249.652 161.869 247.629C162.01 246.385 162.556 244.545 163.506 242.109C164.482 239.653 165.009 238.08 165.086 237.391C165.167 236.68 164.929 236.293 164.374 236.23C163.573 236.14 162.489 237.075 161.119 239.036C159.772 241 158.645 242.898 157.74 244.732C156.86 246.545 156.337 247.69 156.17 248.167C156.026 248.646 155.809 248.869 155.521 248.836Z"
    fill="#131112" />
  <path
    d="M173.213 245.972C173.03 248.583 173.842 249.951 175.649 250.078C176.363 250.128 177.133 249.868 177.957 249.298C178.806 248.707 179.585 247.988 180.294 247.14C181.866 245.188 182.987 243.584 183.658 242.331L184.158 241.424L185.062 241.488C184.62 242.353 183.985 243.419 183.157 244.684C182.33 245.926 181.551 246.97 180.819 247.816C180.087 248.662 179.238 249.421 178.272 250.093C177.307 250.743 176.412 251.039 175.586 250.981C173.266 250.819 171.867 249.656 171.391 247.493C171.237 246.809 171.195 245.966 171.265 244.962C171.337 243.935 171.737 242.708 172.465 241.279C173.532 239.156 174.885 237.771 176.522 237.123C177.167 236.877 177.791 236.775 178.393 236.817C179.018 236.861 179.497 237.062 179.831 237.422C180.227 237.853 180.406 238.337 180.368 238.872C180.332 239.385 180.243 239.861 180.1 240.3C179.958 240.738 179.695 241.123 179.313 241.455C178.955 241.767 178.564 241.907 178.14 241.878C177.962 241.865 177.836 241.733 177.764 241.481C177.943 241.494 178.199 241.198 178.533 240.594C178.89 239.968 179.091 239.343 179.135 238.719C179.178 238.094 178.933 237.763 178.397 237.725C177.237 237.644 176.109 238.541 175.014 240.415C173.941 242.29 173.341 244.143 173.213 245.972Z"
    fill="#131112" />
  <path
    d="M186.557 246.737C186.471 249.441 187.389 250.824 189.312 250.885C190.027 250.908 190.786 250.619 191.588 250.018C192.414 249.395 193.165 248.647 193.841 247.773C195.337 245.761 196.396 244.117 197.018 242.838L197.484 241.913L198.39 241.942C197.981 242.824 197.387 243.913 196.608 245.209C195.829 246.482 195.09 247.555 194.391 248.428C193.692 249.301 192.873 250.092 191.933 250.8C190.994 251.487 190.11 251.817 189.283 251.791C185.975 251.686 184.379 249.778 184.497 246.067C184.551 244.346 185.109 242.64 186.169 240.951C187.631 238.603 189.379 237.461 191.413 237.525C192.844 237.571 193.535 238.376 193.485 239.941C193.448 241.103 192.963 242.296 192.029 243.52C190.723 245.179 189.232 245.993 187.555 245.963C187.309 245.955 187.156 245.838 187.096 245.612L187.066 245.477C188.229 245.514 189.36 244.789 190.458 243.302C191.58 241.794 192.157 240.525 192.19 239.497C192.212 238.804 191.955 238.449 191.418 238.432C190.233 238.394 189.094 239.399 188 241.445C187.094 243.184 186.613 244.948 186.557 246.737Z"
    fill="#131112" />
  <path
    d="M217.499 252.426C216.181 252.474 215.471 251.112 215.37 248.341C215.319 246.933 215.479 245.181 215.85 243.086C216.243 240.968 216.869 238.797 217.728 236.572C215.867 237.714 214.389 238.92 213.294 240.191C212.221 241.461 211.717 242.979 211.781 244.745C211.796 245.147 211.883 245.402 212.044 245.508C212.204 245.614 212.307 245.666 212.352 245.664C212.317 245.934 212.132 246.075 211.796 246.087C211.461 246.1 211.131 245.944 210.806 245.62C210.481 245.296 210.304 244.743 210.275 243.961C210.246 243.156 210.45 242.309 210.888 241.42C211.325 240.532 211.989 239.713 212.88 238.964C214.334 237.725 216.104 236.553 218.19 235.447C219.53 232.287 220.87 230.683 222.211 230.634C222.904 230.609 223.264 230.954 223.29 231.669C223.313 232.295 223.021 232.888 222.415 233.447C221.83 233.983 220.913 234.632 219.666 235.393C218.659 238.474 217.99 241.934 217.66 245.773C217.554 247.165 217.517 248.307 217.55 249.201C217.608 250.811 217.908 251.65 218.447 251.72C218.24 252.175 217.924 252.411 217.499 252.426ZM222.241 231.439C221.503 231.466 220.767 232.455 220.032 234.407C221.808 233.379 222.683 232.531 222.659 231.86C222.648 231.57 222.509 231.429 222.241 231.439Z"
    fill="#131112" />
  <path
    d="M229.415 251.34C231.713 251.167 233.586 249.534 235.035 246.441C236.484 243.349 237.075 240.041 236.81 236.517C236.63 234.13 235.985 232.575 234.876 231.851C234.451 231.569 233.971 231.449 233.436 231.489C231.786 231.613 230.471 232.767 229.491 234.949C228.703 236.691 228.374 238.431 228.506 240.171C228.672 242.379 229.422 243.545 230.755 243.669C230.868 243.683 230.991 243.684 231.125 243.674C232.285 243.587 233.228 242.854 233.954 241.476C234.68 240.098 235.009 238.671 234.943 237.196C234.919 236.884 235.023 236.764 235.252 236.836C235.504 236.907 235.63 237.088 235.63 237.38C235.689 239.057 235.27 240.637 234.372 242.117C233.474 243.598 232.223 244.399 230.617 244.52C228.766 244.66 227.493 243.847 226.799 242.083C226.572 241.45 226.423 240.664 226.353 239.728C226.28 238.769 226.472 237.599 226.929 236.219C227.722 233.939 229.025 232.337 230.84 231.416C231.574 231.046 232.354 230.83 233.18 230.768C235.678 230.58 237.44 231.647 238.468 233.969C238.9 234.946 239.167 236.103 239.268 237.442C239.367 238.757 239.193 240.307 238.744 242.09C237.936 245.359 236.472 247.948 234.35 249.857C232.732 251.303 230.931 252.1 228.946 252.25C227.83 252.334 226.962 252.119 226.34 251.605C225.696 251.093 225.351 250.536 225.306 249.934C225.26 249.332 225.469 248.979 225.932 248.877C226.336 248.869 226.582 249.019 226.673 249.326C226.718 249.928 226.958 250.437 227.394 250.853C227.849 251.245 228.523 251.407 229.415 251.34Z"
    fill="#131112" />
  <path
    d="M249.133 249.703C251.419 249.42 253.212 247.7 254.512 244.542C255.813 241.384 256.246 238.052 255.813 234.544C255.519 232.169 254.802 230.646 253.66 229.976C253.222 229.715 252.736 229.617 252.204 229.683C250.561 229.886 249.303 231.1 248.428 233.327C247.724 235.104 247.478 236.858 247.692 238.59C247.964 240.787 248.768 241.916 250.105 241.976C250.219 241.985 250.342 241.981 250.475 241.964C251.63 241.822 252.537 241.045 253.196 239.634C253.856 238.223 254.117 236.782 253.981 235.311C253.942 235.001 254.04 234.876 254.272 234.937C254.528 234.996 254.662 235.171 254.675 235.462C254.814 237.135 254.471 238.733 253.645 240.255C252.819 241.776 251.606 242.636 250.008 242.834C248.166 243.061 246.856 242.31 246.079 240.581C245.822 239.959 245.636 239.182 245.521 238.25C245.403 237.295 245.539 236.118 245.929 234.717C246.612 232.402 247.838 230.74 249.607 229.733C250.323 229.329 251.092 229.076 251.913 228.975C254.4 228.668 256.211 229.65 257.348 231.921C257.826 232.876 258.148 234.019 258.313 235.351C258.474 236.661 258.374 238.217 258.01 240.02C257.359 243.323 256.019 245.979 253.991 247.987C252.444 249.508 250.682 250.39 248.707 250.634C247.597 250.771 246.719 250.598 246.073 250.114C245.406 249.633 245.035 249.093 244.961 248.494C244.886 247.895 245.078 247.533 245.536 247.409C245.939 247.381 246.192 247.519 246.297 247.822C246.371 248.421 246.636 248.918 247.09 249.313C247.564 249.682 248.245 249.812 249.133 249.703Z"
    fill="#131112" />
  <path
    d="M272.178 247.073C270.877 247.295 269.993 246.039 269.526 243.306C269.289 241.917 269.216 240.159 269.306 238.034C269.415 235.882 269.748 233.647 270.305 231.328C268.612 232.707 267.306 234.098 266.389 235.503C265.494 236.904 265.195 238.475 265.493 240.217C265.561 240.614 265.681 240.854 265.854 240.938C266.027 241.022 266.136 241.06 266.18 241.052C266.181 241.324 266.016 241.489 265.686 241.545C265.355 241.602 265.007 241.491 264.642 241.213C264.277 240.935 264.028 240.41 263.896 239.638C263.761 238.845 263.851 237.978 264.167 237.04C264.483 236.101 265.033 235.201 265.816 234.341C267.094 232.92 268.693 231.524 270.615 230.152C271.524 226.843 272.64 225.075 273.963 224.849C274.646 224.732 275.048 225.027 275.169 225.732C275.274 226.349 275.064 226.975 274.537 227.61C274.028 228.219 273.206 228.983 272.07 229.903C271.48 233.09 271.275 236.608 271.456 240.457C271.535 241.85 271.65 242.988 271.801 243.87C272.072 245.457 272.48 246.25 273.024 246.248C272.879 246.726 272.597 247.001 272.178 247.073ZM274.099 225.643C273.371 225.767 272.772 226.845 272.303 228.877C273.926 227.624 274.682 226.666 274.569 226.005C274.52 225.718 274.363 225.598 274.099 225.643Z"
    fill="#131112" />
  <path
    d="M61.0088 244.715C58.4765 252.207 48.4281 280.994 48.4281 280.994C32.0068 275.182 15.826 268.409 0 260.647C10.876 255.342 21.4099 249.658 31.5511 243.631C29.0063 232.021 26.9297 220.437 25.3344 208.902C47.1495 219.589 69.6984 228.159 92.6912 234.617C82.2459 238.199 72.1125 242.019 61.0088 244.715"
    fill="#131112" />
  <path
    d="M88.4828 253.978C90.0672 248.185 91.6511 242.39 93.2344 236.597C83.4396 239.995 74.1656 243.341 63.75 245.877C72.2021 249.007 79.8885 251.471 88.4828 253.978"
    fill="#131112" />
  <path
    d="M342.632 244.715C345.164 252.207 355.213 280.994 355.213 280.994C371.635 275.182 387.815 268.409 403.641 260.647C392.765 255.342 382.232 249.658 372.091 243.631C374.635 232.021 376.711 220.437 378.307 208.902C356.492 219.589 333.943 228.159 310.951 234.617C321.396 238.199 331.528 242.019 342.632 244.715"
    fill="#131112" />
  <path
    d="M314.732 253.978C313.147 248.185 311.564 242.39 309.98 236.597C319.775 239.995 329.048 243.341 339.465 245.877C331.013 249.007 323.325 251.471 314.732 253.978"
    fill="#131112" />
  <path
    d="M360.305 300.758C309.13 319.027 255.612 328.282 201.22 328.282C147.449 328.282 94.5014 319.23 43.832 301.353L49.694 284.793L62.6462 248.239C64.0138 248.721 65.381 249.19 66.7482 249.645C71.9014 251.418 77.0795 253.077 82.2962 254.621C84.4738 255.279 86.6514 255.913 88.8419 256.521C89.1836 256.622 89.5383 256.71 89.88 256.811C126.09 266.865 163.428 271.941 201.22 271.941C239.545 271.941 277.389 266.713 314.08 256.381C315.372 256.014 316.65 255.646 317.929 255.279C318.892 255.001 319.853 254.71 320.816 254.418C321.981 254.077 323.145 253.722 324.31 253.367C329.994 251.607 335.668 249.721 341.301 247.709L354.38 284.21L360.305 300.758"
    fill="#131112" />
  <path
    d="M77.4315 70.4098L76.1562 71.7664L63.4267 69.5051L71.3131 76.9185L70.0378 78.2751L59.8039 68.6548L61.0791 67.2982L73.857 69.5785L65.9355 62.132L67.1975 60.7895L77.4315 70.4098Z"
    fill="#131112" />
  <path
    d="M88.6406 55.1873L84.1431 58.9822L85.4969 62.6362L84.0371 63.8679L79.0787 49.674L80.3173 48.6289L93.4818 55.8988L92.0294 57.1243L88.6406 55.1873ZM83.5878 57.4564L87.2374 54.377L81.1724 50.8988L83.5878 57.4564Z"
    fill="#131112" />
  <path
    d="M100.303 35.5896L96.5819 38.1463L103.673 48.4666L102.154 49.51L95.0633 39.1898L91.3502 41.741L90.487 40.4848L99.4397 34.3334L100.303 35.5896Z"
    fill="#131112" />
  <path
    d="M115.88 24.8341L120.399 33.2476C121.02 34.4178 121.165 35.5702 120.833 36.705C120.506 37.8367 119.744 38.7826 118.546 39.5428L118.122 39.7926C116.768 40.5199 115.492 40.7342 114.295 40.4354C113.098 40.1367 112.15 39.3501 111.451 38.0758L106.923 29.6453L108.537 28.778L113.038 37.1575C113.519 38.0527 114.14 38.6172 114.9 38.851C115.658 39.0792 116.493 38.9483 117.405 38.4583C118.329 37.9623 118.902 37.337 119.124 36.5823C119.352 35.8247 119.226 34.9983 118.745 34.1031L114.24 25.7151L115.88 24.8341Z"
    fill="#131112" />
  <path
    d="M134.843 25.3764L131.776 26.5923L133.87 31.8744L132.139 32.5605L126.962 19.5034L131.285 17.7898C132.756 17.2067 134.018 17.0935 135.073 17.4503C136.134 17.8046 136.917 18.6215 137.425 19.9009C137.747 20.714 137.807 21.5102 137.604 22.2894C137.407 23.0662 136.976 23.7594 136.311 24.3688L141.575 28.695L141.618 28.8026L139.77 29.535L134.843 25.3764ZM131.217 25.1844L133.863 24.1356C134.718 23.7966 135.309 23.3064 135.636 22.6649C135.968 22.021 135.988 21.3284 135.694 20.5871C135.374 19.78 134.886 19.2572 134.232 19.0187C133.583 18.7779 132.803 18.8346 131.891 19.1889L129.255 20.2342L131.217 25.1844Z"
    fill="#131112" />
  <path
    d="M157.81 19.9613L152.125 21.4796L151.794 25.3622L149.949 25.8551L151.507 10.901L153.072 10.4828L161.888 22.6667L160.052 23.157L157.81 19.9613ZM152.272 19.8626L156.886 18.6306L152.879 12.9008L152.272 19.8626Z"
    fill="#131112" />
  <path
    d="M171.516 19.1975L178.09 18.1519L178.328 19.6477L169.916 20.9858L167.709 7.11436L169.548 6.82189L171.516 19.1975Z"
    fill="#131112" />
  <path
    d="M196.497 14.2381C196.504 13.5629 196.698 12.9444 197.077 12.3827C197.463 11.821 198.19 11.1699 199.26 10.4294C198.644 9.66356 198.233 9.04795 198.026 8.58256C197.819 8.11716 197.718 7.65617 197.723 7.19958C197.735 6.13207 198.06 5.29959 198.697 4.70215C199.334 4.10472 200.193 3.81205 201.273 3.82415C202.238 3.83496 203.032 4.12684 203.656 4.69982C204.28 5.26636 204.587 5.97727 204.577 6.83257C204.571 7.39848 204.42 7.92097 204.126 8.40004C203.837 8.87275 203.333 9.36878 202.614 9.88811L201.573 10.6386L204.656 14.4067C205.103 13.5756 205.332 12.6488 205.344 11.6263L206.954 11.6443C206.936 13.2842 206.525 14.6399 205.722 15.7114L207.702 18.1358L205.56 18.1118L204.637 16.992C204.156 17.4111 203.593 17.7296 202.948 17.9475C202.309 18.159 201.658 18.261 200.995 18.2536C199.626 18.2383 198.53 17.8626 197.709 17.1266C196.887 16.3906 196.483 15.4278 196.497 14.2381ZM201.012 16.797C201.957 16.8076 202.826 16.4572 203.619 15.7457L200.24 11.6077L199.919 11.8356C198.837 12.6146 198.29 13.4221 198.281 14.2581C198.273 15.0169 198.51 15.6274 198.994 16.0894C199.484 16.5516 200.157 16.7874 201.012 16.797ZM199.509 7.16169C199.502 7.77905 199.872 8.555 200.621 9.48954L201.768 8.70165C202.209 8.39787 202.511 8.10862 202.675 7.83389C202.839 7.55274 202.923 7.21281 202.928 6.8141C202.933 6.38323 202.776 6.02452 202.457 5.73796C202.139 5.44497 201.736 5.29574 201.247 5.29027C200.72 5.28436 200.299 5.45974 199.987 5.81641C199.674 6.16665 199.515 6.61507 199.509 7.16169Z"
    fill="#131112" />
  <path
    d="M238.869 15.175C238.627 16.5299 238.189 17.6733 237.552 18.6052C236.917 19.5307 236.134 20.185 235.204 20.568C234.273 20.951 233.251 21.0433 232.137 20.8448C231.048 20.6508 230.129 20.2129 229.382 19.5311C228.636 18.843 228.116 17.9633 227.824 16.8921C227.538 15.8157 227.506 14.6243 227.725 13.3177L227.903 12.3205C228.14 10.9908 228.58 9.85749 229.224 8.92043C229.868 7.98336 230.658 7.32072 231.596 6.93252C232.542 6.5391 233.559 6.43938 234.648 6.63333C235.756 6.83067 236.683 7.27342 237.429 7.96158C238.183 8.64454 238.697 9.53631 238.971 10.6369C239.247 11.7311 239.265 12.9526 239.024 14.3012L238.869 15.175ZM237.214 13.9591C237.506 12.3192 237.4 11.0038 236.898 10.0128C236.396 9.01539 235.553 8.41127 234.369 8.2004C233.217 7.99517 232.23 8.27339 231.408 9.03508C230.594 9.79156 230.039 10.9469 229.742 12.5011L229.561 13.5173C229.278 15.1065 229.388 16.4162 229.89 17.4464C230.4 18.4713 231.241 19.0881 232.412 19.2967C233.59 19.5065 234.578 19.2415 235.376 18.5017C236.175 17.7556 236.727 16.5834 237.031 14.9848L237.214 13.9591Z"
    fill="#131112" />
  <path
    d="M252.58 19.5546L249.417 18.6164L247.802 24.0638L246.017 23.5344L250.011 10.0685L254.468 11.3907C255.985 11.8406 257.048 12.5315 257.657 13.4635C258.272 14.3972 258.384 15.5239 257.993 16.8433C257.744 17.6819 257.299 18.3448 256.658 18.8323C256.024 19.3215 255.257 19.6005 254.357 19.6692L255.825 26.323L255.792 26.434L253.887 25.8689L252.58 19.5546ZM249.848 17.1644L252.576 17.9736C253.458 18.2352 254.225 18.2146 254.879 17.912C255.538 17.6111 255.981 17.0785 256.208 16.3139C256.455 15.4815 256.394 14.7693 256.027 14.1773C255.665 13.587 255.017 13.1498 254.081 12.8657L251.362 12.0592L249.848 17.1644Z"
    fill="#131112" />
  <path
    d="M275.057 31.8896C274.354 32.3338 273.542 32.5474 272.622 32.5303C271.71 32.5098 270.732 32.2804 269.688 31.8419C268.633 31.3985 267.799 30.7589 267.188 29.923C266.579 29.0812 266.241 28.1091 266.174 27.0067C266.113 25.9068 266.329 24.7525 266.823 23.5439L267.297 22.4144C268.117 20.4637 269.206 19.1423 270.564 18.4502C271.928 17.7606 273.434 17.7621 275.082 18.4546C276.434 19.0226 277.376 19.8265 277.909 20.8665C278.444 21.9005 278.537 23.0906 278.188 24.4366L276.48 23.7192C276.88 21.8712 276.22 20.586 274.501 19.8636C273.356 19.3828 272.318 19.4211 271.387 19.9783C270.463 20.5322 269.679 21.5697 269.033 23.091L268.588 24.1494C267.978 25.6021 267.824 26.8978 268.127 28.0365C268.432 29.1693 269.151 29.9736 270.284 30.4494C270.924 30.7184 271.514 30.8826 272.054 30.9421C272.594 31.0016 273.092 30.9283 273.549 30.7224L274.771 27.8141L271.773 26.5549L272.356 25.1675L277.052 27.1404L275.057 31.8896Z"
    fill="#131112" />
  <path
    d="M290.107 37.5913L284.961 34.7371L282.028 37.3017L280.357 36.3752L291.86 26.694L293.278 27.4801L291.164 42.3692L289.502 41.4474L290.107 37.5913ZM286.19 33.6755L290.366 35.9917L291.46 29.0864L286.19 33.6755Z"
    fill="#131112" />
  <path
    d="M306.961 52.9896L305.449 51.9029L306.025 38.9869L299.707 47.7757L298.196 46.689L306.394 35.2839L307.906 36.3706L307.317 49.3371L313.663 40.5091L315.159 41.5846L306.961 52.9896Z"
    fill="#131112" />
  <path d="M316.799 61.0046L315.408 59.7816L324.683 49.2336L326.074 50.4567L316.799 61.0046Z" fill="#131112" />
  <path
    d="M335.149 72.6809C333.958 73.5847 332.749 73.9832 331.523 73.8765C330.306 73.77 329.167 73.1647 328.107 72.0607C326.958 70.8639 326.465 69.4917 326.628 67.9439C326.796 66.4008 327.599 64.9388 329.037 63.5579L330.011 62.6225C330.953 61.7182 331.941 61.0901 332.976 60.7381C334.016 60.3907 335.022 60.3429 335.995 60.5945C336.972 60.8418 337.851 61.3713 338.63 62.183C339.663 63.2592 340.191 64.4116 340.211 65.6401C340.236 66.8641 339.769 68.0395 338.809 69.1663L337.52 67.8234C338.215 66.9323 338.557 66.1183 338.545 65.3812C338.537 64.6487 338.199 63.9346 337.531 63.2388C336.711 62.3852 335.752 62.0178 334.653 62.1366C333.559 62.26 332.43 62.8807 331.266 63.9988L330.285 64.9409C329.185 65.9967 328.531 67.066 328.323 68.1488C328.114 69.2317 328.407 70.186 329.2 71.0117C329.912 71.7539 330.625 72.1617 331.338 72.2353C332.059 72.3091 332.9 72.01 333.86 71.338L335.149 72.6809Z"
    fill="#131112" />
  <path
    d="M85.3071 285.094L78.4601 282.412L75.2514 286.075L73.0289 285.204L85.6722 271.306L87.558 272.045L87.4076 290.837L85.1963 289.971L85.3071 285.094ZM79.8059 280.894L85.3621 283.07L85.5729 274.336L79.8059 280.894Z"
    fill="white" />
  <path
    d="M105.137 289.119L101.18 287.963L99.1893 294.779L96.956 294.127L101.876 277.279L107.454 278.907C109.352 279.462 110.683 280.319 111.449 281.481C112.223 282.644 112.369 284.052 111.887 285.703C111.58 286.752 111.028 287.583 110.23 288.195C109.439 288.81 108.482 289.162 107.359 289.253L109.228 297.56L109.187 297.699L106.804 297.003L105.137 289.119ZM101.71 286.147L105.124 287.144C106.227 287.466 107.186 287.436 108.001 287.054C108.823 286.675 109.374 286.007 109.653 285.05C109.958 284.009 109.878 283.119 109.416 282.381C108.961 281.646 108.148 281.103 106.978 280.753L103.576 279.759L101.71 286.147Z"
    fill="white" />
  <path
    d="M135.662 287.77L130.142 286.606L126.913 301.916L124.66 301.441L127.889 286.131L122.38 284.969L122.773 283.105L136.055 285.906L135.662 287.77Z"
    fill="white" />
  <path d="M143.921 304.994L141.632 304.651L144.236 287.293L146.525 287.636L143.921 304.994Z" fill="white" />
  <path
    d="M163.402 299.526C161.478 298.775 160.102 297.945 159.274 297.037C158.455 296.121 158.102 295.056 158.215 293.839C158.342 292.463 158.996 291.377 160.175 290.583C161.363 289.781 162.838 289.461 164.598 289.625C165.799 289.736 166.845 290.067 167.739 290.618C168.64 291.17 169.309 291.877 169.745 292.741C170.19 293.606 170.367 294.522 170.277 295.49L167.961 295.275C168.059 294.219 167.799 293.36 167.183 292.697C166.567 292.027 165.647 291.635 164.422 291.521C163.286 291.416 162.374 291.586 161.688 292.03C161.009 292.468 160.629 293.131 160.547 294.019C160.481 294.731 160.725 295.363 161.279 295.915C161.842 296.46 162.829 297.003 164.239 297.546C165.658 298.089 166.752 298.646 167.522 299.218C168.301 299.783 168.857 300.411 169.188 301.104C169.527 301.797 169.656 302.588 169.573 303.476C169.442 304.892 168.784 305.978 167.601 306.731C166.418 307.477 164.902 307.765 163.053 307.593C161.853 307.482 160.754 307.15 159.756 306.597C158.758 306.037 158.013 305.33 157.519 304.477C157.033 303.625 156.837 302.691 156.931 301.674L159.248 301.889C159.15 302.945 159.461 303.818 160.18 304.506C160.908 305.187 161.924 305.588 163.228 305.709C164.444 305.821 165.4 305.66 166.094 305.224C166.788 304.788 167.175 304.141 167.254 303.285C167.334 302.429 167.095 301.741 166.538 301.221C165.981 300.693 164.936 300.128 163.402 299.526Z"
    fill="white" />
  <path
    d="M188.562 304.222L181.211 304.024L179.436 308.559L177.05 308.494L184.223 291.129L186.248 291.184L192.487 308.911L190.113 308.847L188.562 304.222ZM181.961 302.139L187.926 302.3L185.159 294.012L181.961 302.139Z"
    fill="white" />
  <path
    d="M215.85 308.373L213.525 308.463L204.172 295.29L204.696 308.806L202.371 308.896L201.691 291.356L204.016 291.266L213.396 304.499L212.87 290.923L215.171 290.834L215.85 308.373Z"
    fill="white" />
  <path
    d="M250.742 297.382L243.436 298.319L244.422 306.007L242.126 306.302L239.894 288.892L250.679 287.509L250.921 289.398L242.432 290.487L243.195 296.441L250.501 295.505L250.742 297.382Z"
    fill="white" />
  <path
    d="M275.15 292.724C275.475 294.413 275.475 295.944 275.15 297.316C274.823 298.68 274.203 299.794 273.288 300.657C272.374 301.52 271.223 302.086 269.834 302.353C268.476 302.614 267.209 302.514 266.032 302.053C264.853 301.584 263.853 300.79 263.032 299.672C262.218 298.543 261.646 297.168 261.318 295.545L261.079 294.302C260.76 292.645 260.766 291.126 261.098 289.744C261.43 288.363 262.056 287.236 262.976 286.363C263.903 285.481 265.045 284.909 266.403 284.648C267.784 284.382 269.064 284.484 270.242 284.953C271.427 285.412 272.426 286.222 273.239 287.384C274.05 288.537 274.618 289.954 274.941 291.635L275.15 292.724ZM272.675 292.047C272.282 290.003 271.57 288.515 270.54 287.584C269.508 286.645 268.254 286.317 266.779 286.601C265.342 286.877 264.315 287.644 263.698 288.9C263.086 290.147 262.956 291.744 263.306 293.69L263.549 294.956C263.93 296.937 264.645 298.416 265.692 299.393C266.746 300.361 268.002 300.704 269.462 300.423C270.93 300.141 271.964 299.389 272.564 298.169C273.163 296.941 273.282 295.326 272.921 293.325L272.675 292.047Z"
    fill="white" />
  <path
    d="M297.906 286.988C298.359 288.647 298.475 290.173 298.256 291.566C298.034 292.951 297.501 294.109 296.655 295.04C295.809 295.97 294.704 296.622 293.34 296.994C292.006 297.358 290.735 297.355 289.526 296.986C288.315 296.608 287.257 295.893 286.354 294.84C285.455 293.777 284.78 292.45 284.329 290.857L283.996 289.636C283.551 288.007 283.442 286.492 283.667 285.089C283.892 283.687 284.43 282.515 285.281 281.574C286.138 280.624 287.234 279.967 288.567 279.603C289.924 279.232 291.208 279.236 292.419 279.614C293.635 279.981 294.693 280.713 295.592 281.809C296.489 282.897 297.163 284.267 297.614 285.918L297.906 286.988ZM295.386 286.501C294.838 284.493 294.015 283.064 292.916 282.214C291.816 281.357 290.541 281.126 289.091 281.522C287.68 281.907 286.714 282.749 286.194 284.049C285.68 285.339 285.672 286.941 286.169 288.855L286.509 290.099C287.04 292.045 287.865 293.465 288.984 294.359C290.109 295.244 291.388 295.49 292.822 295.099C294.264 294.705 295.238 293.877 295.743 292.614C296.246 291.344 296.241 289.725 295.729 287.757L295.386 286.501Z"
    fill="white" />
  <path
    d="M310.074 291.795L303.888 275.369L308.524 273.623C309.953 273.085 311.336 272.925 312.672 273.143C314.008 273.361 315.192 273.941 316.226 274.883C317.266 275.822 318.075 277.046 318.652 278.555L319.047 279.604C319.631 281.154 319.841 282.625 319.678 284.017C319.523 285.406 319.007 286.623 318.129 287.666C317.258 288.707 316.089 289.512 314.62 290.083L310.074 291.795ZM306.725 276.336L311.573 289.208L313.852 288.35C315.521 287.721 316.623 286.713 317.158 285.327C317.699 283.938 317.609 282.284 316.887 280.367L316.526 279.408C315.823 277.542 314.838 276.26 313.57 275.561C312.306 274.852 310.867 274.793 309.252 275.384L306.725 276.336Z"
    fill="white" />
</svg>